<svg version="1.1" viewBox="0.0 0.0 557.8582677165355 557.8582677165355" fill="none" stroke="none" stroke-linecap="square" stroke-miterlimit="10" xmlns:xlink="http://www.w3.org/1999/xlink" xmlns="http://www.w3.org/2000/svg"><clipPath id="p.0"><path d="m0 0l557.8583 0l0 557.8583l-557.8583 0l0 -557.8583z" clip-rule="nonzero"/></clipPath><g clip-path="url(#p.0)"><path fill="#000000" fill-opacity="0.0" d="m0 0l557.8583 0l0 557.8583l-557.8583 0z" fill-rule="evenodd"/><path fill="#000000" fill-opacity="0.0" d="m0.015748031 0l557.8583 0l0 516.1575l-557.8583 0z" fill-rule="evenodd"/><path fill="#000000" d="m200.74706 279.16312q0 0.671875 -0.671875 9.515625l-92.25 0q2.484375 11.328125 11.78125 17.90625q9.296875 6.578125 23.125 6.578125q9.515625 0 16.875 -2.828125q7.375 -2.84375 13.71875 -8.96875l18.8125 20.40625q-17.234375 19.71875 -50.3125 19.71875q-20.640625 0 -36.5 -8.046875q-15.859375 -8.046875 -24.484375 -22.328125q-8.609375 -14.28125 -8.609375 -32.40625q0 -17.90625 8.5 -32.296875q8.5 -14.390625 23.34375 -22.4375q14.84375 -8.046875 33.203125 -8.046875q17.90625 0 32.40625 7.703125q14.515625 7.703125 22.78125 22.09375q8.28125 14.390625 8.28125 33.4375zm-63.234375 -36.5q-12.015625 0 -20.171875 6.8125q-8.15625 6.796875 -9.96875 18.578125l60.0625 0q-1.8125 -11.5625 -9.984375 -18.46875q-8.15625 -6.921875 -19.9375 -6.921875zm86.801315 -71.15625l35.359375 0l0 168.17188l-35.359375 0l0 -168.17188zm68.22351 46.234375l35.359375 0l0 121.9375l-35.359375 0l0 -121.9375zm17.6875 -17.0q-9.75 0 -15.875 -5.65625q-6.109375 -5.671875 -6.109375 -14.0625q0 -8.390625 6.109375 -14.046875q6.125 -5.671875 15.875 -5.671875q9.75 0 15.859375 5.4375q6.125 5.4375 6.125 13.59375q0 8.84375 -6.125 14.625q-6.109375 5.78125 -15.859375 5.78125zm108.56729 140.75q-19.265625 0 -34.5625 -8.046875q-15.296875 -8.046875 -23.921875 -22.328125q-8.609375 -14.28125 -8.609375 -32.40625q0 -18.140625 8.609375 -32.40625q8.625 -14.28125 23.921875 -22.328125q15.296875 -8.046875 34.5625 -8.046875q19.265625 0 34.453125 8.046875q15.1875 8.046875 23.796875 22.328125q8.609375 14.265625 8.609375 32.40625q0 18.125 -8.609375 32.40625q-8.609375 14.28125 -23.796875 22.328125q-15.1875 8.046875 -34.453125 8.046875zm0 -29.015625q13.59375 0 22.3125 -9.171875q8.734375 -9.1875 8.734375 -24.59375q0 -15.421875 -8.734375 -24.59375q-8.71875 -9.1875 -22.3125 -9.1875q-13.59375 0 -22.4375 9.1875q-8.84375 9.171875 -8.84375 24.59375q0 15.40625 8.84375 24.59375q8.84375 9.171875 22.4375 9.171875z" fill-rule="nonzero"/></g></svg>