<svg version="1.1" viewBox="0.0 0.0 557.8582677165355 557.8582677165355" fill="none" stroke="none" stroke-linecap="square" stroke-miterlimit="10" xmlns:xlink="http://www.w3.org/1999/xlink" xmlns="http://www.w3.org/2000/svg"><clipPath id="p.0"><path d="m0 0l557.8583 0l0 557.8583l-557.8583 0l0 -557.8583z" clip-rule="nonzero"/></clipPath><g clip-path="url(#p.0)"><path fill="#000000" fill-opacity="0.0" d="m0 0l557.8583 0l0 557.8583l-557.8583 0z" fill-rule="evenodd"/><path fill="#000000" fill-opacity="0.0" d="m177.792 435.45145c-29.079575 0 -52.65322 -23.573639 -52.65322 -52.65323l0 -51.213226c0 -29.07959 -23.573654 -52.65323 -52.65322 -52.65323l0 0c29.079567 0 52.65322 -23.573654 52.65322 -52.65323l0 -51.21324l0 0c0 -29.079575 23.573647 -52.65322 52.65322 -52.65322l202.269 0c13.964508 0 27.357056 5.5473785 37.231445 15.421776c9.87442 9.87439 15.421783 23.266953 15.421783 37.231445l0 51.21324l0 0c0 29.079575 23.573639 52.65323 52.65323 52.65323c-29.07959 0 -52.65323 23.573639 -52.65323 52.65323l0 51.213226c0 29.07959 -23.573639 52.65323 -52.65323 52.65323z" fill-rule="evenodd"/><path fill="#000000" fill-opacity="0.0" d="m177.792 435.45145c-29.079575 0 -52.65322 -23.573639 -52.65322 -52.65323l0 -51.213226c0 -29.07959 -23.573654 -52.65323 -52.65322 -52.65323l0 0c29.079567 0 52.65322 -23.573654 52.65322 -52.65323l0 -51.21324l0 0c0 -29.079575 23.573647 -52.65322 52.65322 -52.65322m202.269 0c13.964508 0 27.357056 5.5473785 37.231445 15.421776c9.87442 9.87439 15.421783 23.266953 15.421783 37.231445l0 51.21324l0 0c0 29.079575 23.573639 52.65323 52.65323 52.65323c-29.07959 0 -52.65323 23.573639 -52.65323 52.65323l0 51.213226c0 29.07959 -23.573639 52.65323 -52.65323 52.65323" fill-rule="evenodd"/><path stroke="#000000" stroke-width="16.0" stroke-linejoin="round" stroke-linecap="butt" d="m177.792 435.45145c-29.079575 0 -52.65322 -23.573639 -52.65322 -52.65323l0 -51.213226c0 -29.07959 -23.573654 -52.65323 -52.65322 -52.65323l0 0c29.079567 0 52.65322 -23.573654 52.65322 -52.65323l0 -51.21324l0 0c0 -29.079575 23.573647 -52.65322 52.65322 -52.65322m202.269 0c13.964508 0 27.357056 5.5473785 37.231445 15.421776c9.87442 9.87439 15.421783 23.266953 15.421783 37.231445l0 51.21324l0 0c0 29.079575 23.573639 52.65323 52.65323 52.65323c-29.07959 0 -52.65323 23.573639 -52.65323 52.65323l0 51.213226c0 29.07959 -23.573639 52.65323 -52.65323 52.65323" fill-rule="evenodd"/><path fill="#000000" d="m285.83737 494.16904c14.57486 0.5019531 61.586395 1.845581 85.59506 -11.199921c24.008698 -13.045502 60.282898 -65.3002 58.45706 -67.07303c-1.8258667 -1.7728271 -45.094482 45.759186 -69.41217 56.436066c-24.317657 10.67688 -64.053894 3.9857788 -76.4939 7.625244c-12.440002 3.6394958 -12.720886 13.709686 1.8539429 14.211639z" fill-rule="evenodd"/><path fill="#000000" d="m292.794 475.3352c13.118622 1.860199 55.450134 7.615082 77.92215 -1.6732788c22.472046 -9.288361 58.447174 -52.30124 56.910034 -54.056915c-1.5371399 -1.7556458 -43.529327 36.37372 -66.132904 43.52298c-22.603607 7.1492615 -58.03882 -2.6618652 -69.48871 -0.62731934c-11.44986 2.0345154 -12.329163 10.974304 0.7894287 12.834534z" fill-rule="evenodd"/><path fill="#000000" d="m300.7384 457.61453c11.731232 2.9129639 49.60135 12.091827 70.475586 5.9611816c20.874237 -6.1306763 56.0484 -41.03308 54.769806 -42.745148c-1.2785645 -1.7120667 -41.581818 28.261475 -62.441345 32.472687c-20.859528 4.211212 -52.248413 -7.9239197 -62.71576 -7.2053833c-10.467316 0.7185364 -11.819489 8.603668 -0.08828735 11.516663z" fill-rule="evenodd"/><path fill="#000000" d="m310.61496 442.45108c10.411713 3.7398376 44.03418 15.612183 63.163605 12.172302c19.129456 -3.4398804 52.673492 -31.15976 51.613068 -32.811646c-1.0604553 -1.6518555 -38.96176 21.1716 -57.975647 22.90036c-19.013855 1.7287598 -46.640686 -12.15094 -56.107544 -12.527771c-9.466827 -0.37683105 -11.105164 6.5269165 -0.69348145 10.266754z" fill-rule="evenodd"/><path fill="#000000" d="m285.83737 63.761448c14.57486 -0.5019531 61.586395 -1.8455696 85.59506 11.199924c24.008698 13.045486 60.282898 65.30019 58.45706 67.07302c-1.8258667 1.7728271 -45.094482 -45.75918 -69.41217 -56.436066c-24.317657 -10.67688 -64.053894 -3.9857635 -76.4939 -7.625244c-12.440002 -3.6394806 -12.720886 -13.709686 1.8539429 -14.211636z" fill-rule="evenodd"/><path fill="#000000" d="m292.794 82.59529c13.118622 -1.8602066 55.450134 -7.6151047 77.92215 1.6732559c22.472046 9.288361 58.447174 52.30126 56.910034 54.056923c-1.5371399 1.755661 -43.529327 -36.373703 -66.132904 -43.522972c-22.603607 -7.1492767 -58.03882 2.6618576 -69.48871 0.62732697c-11.44986 -2.0345306 -12.329163 -10.974319 0.7894287 -12.834534z" fill-rule="evenodd"/><path fill="#000000" d="m300.7384 100.31596c11.731232 -2.9129791 49.60135 -12.091843 70.475586 -5.9611893c20.874237 6.130661 56.0484 41.033073 54.769806 42.74514c-1.2785645 1.7120819 -41.581818 -28.261475 -62.441345 -32.472694c-20.859528 -4.211212 -52.248413 7.9239426 -62.71576 7.2053986c-10.467316 -0.718544 -11.819489 -8.603683 -0.08828735 -11.516655z" fill-rule="evenodd"/><path fill="#000000" d="m310.61496 115.47939c10.411713 -3.7398376 44.03418 -15.612175 63.163605 -12.172287c19.129456 3.439888 52.673492 31.159752 51.613068 32.811623c-1.0604553 1.651886 -38.96176 -21.171577 -57.975647 -22.900337c-19.013855 -1.7287674 -46.640686 12.150925 -56.107544 12.527763c-9.466827 0.37683105 -11.105164 -6.5269165 -0.69348145 -10.266762z" fill-rule="evenodd"/></g></svg>